<mxfile host="app.diagrams.net" modified="2023-09-26T19:48:59.215Z" agent="Mozilla/5.0 (X11; Linux x86_64; rv:109.0) Gecko/20100101 Firefox/118.0" etag="Mrk9kJ6SiEko4nTE9eY2" version="21.8.2" type="device">
  <diagram name="PÃ¡gina-1" id="LtGsJLD2cC9bppvZ1uyt">
    <mxGraphModel dx="880" dy="438" grid="1" gridSize="10" guides="1" tooltips="1" connect="1" arrows="1" fold="1" page="1" pageScale="1" pageWidth="827" pageHeight="1169" math="0" shadow="0">
      <root>
        <mxCell id="0" />
        <mxCell id="1" parent="0" />
        <mxCell id="3V8YBEgaMH6hL4Iayk6c-7" value="Marca" style="swimlane;fontStyle=0;childLayout=stackLayout;horizontal=1;startSize=30;horizontalStack=0;resizeParent=1;resizeParentMax=0;resizeLast=0;collapsible=1;marginBottom=0;whiteSpace=wrap;html=1;" vertex="1" parent="1">
          <mxGeometry x="30" y="40" width="140" height="90" as="geometry" />
        </mxCell>
        <mxCell id="3V8YBEgaMH6hL4Iayk6c-8" value="id_marca" style="text;strokeColor=#6c8ebf;fillColor=#dae8fc;align=left;verticalAlign=middle;spacingLeft=4;spacingRight=4;overflow=hidden;points=[[0,0.5],[1,0.5]];portConstraint=eastwest;rotatable=0;whiteSpace=wrap;html=1;" vertex="1" parent="3V8YBEgaMH6hL4Iayk6c-7">
          <mxGeometry y="30" width="140" height="30" as="geometry" />
        </mxCell>
        <mxCell id="3V8YBEgaMH6hL4Iayk6c-9" value="nombre" style="text;strokeColor=none;fillColor=none;align=left;verticalAlign=middle;spacingLeft=4;spacingRight=4;overflow=hidden;points=[[0,0.5],[1,0.5]];portConstraint=eastwest;rotatable=0;whiteSpace=wrap;html=1;" vertex="1" parent="3V8YBEgaMH6hL4Iayk6c-7">
          <mxGeometry y="60" width="140" height="30" as="geometry" />
        </mxCell>
        <mxCell id="3V8YBEgaMH6hL4Iayk6c-11" value="Equipo" style="swimlane;fontStyle=0;childLayout=stackLayout;horizontal=1;startSize=30;horizontalStack=0;resizeParent=1;resizeParentMax=0;resizeLast=0;collapsible=1;marginBottom=0;whiteSpace=wrap;html=1;" vertex="1" parent="1">
          <mxGeometry x="290" y="40" width="140" height="240" as="geometry" />
        </mxCell>
        <mxCell id="3V8YBEgaMH6hL4Iayk6c-12" value="id_equipo" style="text;strokeColor=#6c8ebf;fillColor=#dae8fc;align=left;verticalAlign=middle;spacingLeft=4;spacingRight=4;overflow=hidden;points=[[0,0.5],[1,0.5]];portConstraint=eastwest;rotatable=0;whiteSpace=wrap;html=1;" vertex="1" parent="3V8YBEgaMH6hL4Iayk6c-11">
          <mxGeometry y="30" width="140" height="30" as="geometry" />
        </mxCell>
        <mxCell id="3V8YBEgaMH6hL4Iayk6c-13" value="nombre" style="text;strokeColor=none;fillColor=none;align=left;verticalAlign=middle;spacingLeft=4;spacingRight=4;overflow=hidden;points=[[0,0.5],[1,0.5]];portConstraint=eastwest;rotatable=0;whiteSpace=wrap;html=1;" vertex="1" parent="3V8YBEgaMH6hL4Iayk6c-11">
          <mxGeometry y="60" width="140" height="30" as="geometry" />
        </mxCell>
        <mxCell id="3V8YBEgaMH6hL4Iayk6c-29" value="descripcion" style="text;strokeColor=none;fillColor=none;align=left;verticalAlign=middle;spacingLeft=4;spacingRight=4;overflow=hidden;points=[[0,0.5],[1,0.5]];portConstraint=eastwest;rotatable=0;whiteSpace=wrap;html=1;" vertex="1" parent="3V8YBEgaMH6hL4Iayk6c-11">
          <mxGeometry y="90" width="140" height="30" as="geometry" />
        </mxCell>
        <mxCell id="3V8YBEgaMH6hL4Iayk6c-14" value="marca_id" style="text;strokeColor=#b85450;fillColor=#f8cecc;align=left;verticalAlign=middle;spacingLeft=4;spacingRight=4;overflow=hidden;points=[[0,0.5],[1,0.5]];portConstraint=eastwest;rotatable=0;whiteSpace=wrap;html=1;" vertex="1" parent="3V8YBEgaMH6hL4Iayk6c-11">
          <mxGeometry y="120" width="140" height="30" as="geometry" />
        </mxCell>
        <mxCell id="3V8YBEgaMH6hL4Iayk6c-16" value="bateria_id" style="text;strokeColor=#b85450;fillColor=#f8cecc;align=left;verticalAlign=middle;spacingLeft=4;spacingRight=4;overflow=hidden;points=[[0,0.5],[1,0.5]];portConstraint=eastwest;rotatable=0;whiteSpace=wrap;html=1;" vertex="1" parent="3V8YBEgaMH6hL4Iayk6c-11">
          <mxGeometry y="150" width="140" height="30" as="geometry" />
        </mxCell>
        <mxCell id="3V8YBEgaMH6hL4Iayk6c-22" value="camara_frontal&lt;span style=&quot;white-space: pre;&quot;&gt;&#x9;&lt;/span&gt;" style="text;strokeColor=#b85450;fillColor=#f8cecc;align=left;verticalAlign=middle;spacingLeft=4;spacingRight=4;overflow=hidden;points=[[0,0.5],[1,0.5]];portConstraint=eastwest;rotatable=0;whiteSpace=wrap;html=1;" vertex="1" parent="3V8YBEgaMH6hL4Iayk6c-11">
          <mxGeometry y="180" width="140" height="30" as="geometry" />
        </mxCell>
        <mxCell id="3V8YBEgaMH6hL4Iayk6c-23" value="camara_trasera" style="text;strokeColor=#b85450;fillColor=#f8cecc;align=left;verticalAlign=middle;spacingLeft=4;spacingRight=4;overflow=hidden;points=[[0,0.5],[1,0.5]];portConstraint=eastwest;rotatable=0;whiteSpace=wrap;html=1;" vertex="1" parent="3V8YBEgaMH6hL4Iayk6c-11">
          <mxGeometry y="210" width="140" height="30" as="geometry" />
        </mxCell>
        <mxCell id="3V8YBEgaMH6hL4Iayk6c-15" style="edgeStyle=orthogonalEdgeStyle;rounded=0;orthogonalLoop=1;jettySize=auto;html=1;entryX=0.021;entryY=0.9;entryDx=0;entryDy=0;entryPerimeter=0;" edge="1" parent="1" source="3V8YBEgaMH6hL4Iayk6c-8" target="3V8YBEgaMH6hL4Iayk6c-14">
          <mxGeometry relative="1" as="geometry" />
        </mxCell>
        <mxCell id="3V8YBEgaMH6hL4Iayk6c-17" value="Bateria" style="swimlane;fontStyle=0;childLayout=stackLayout;horizontal=1;startSize=30;horizontalStack=0;resizeParent=1;resizeParentMax=0;resizeLast=0;collapsible=1;marginBottom=0;whiteSpace=wrap;html=1;" vertex="1" parent="1">
          <mxGeometry x="560" y="50" width="140" height="120" as="geometry" />
        </mxCell>
        <mxCell id="3V8YBEgaMH6hL4Iayk6c-18" value="id_bateria" style="text;strokeColor=#6c8ebf;fillColor=#dae8fc;align=left;verticalAlign=middle;spacingLeft=4;spacingRight=4;overflow=hidden;points=[[0,0.5],[1,0.5]];portConstraint=eastwest;rotatable=0;whiteSpace=wrap;html=1;" vertex="1" parent="3V8YBEgaMH6hL4Iayk6c-17">
          <mxGeometry y="30" width="140" height="30" as="geometry" />
        </mxCell>
        <mxCell id="3V8YBEgaMH6hL4Iayk6c-19" value="tipo" style="text;strokeColor=none;fillColor=none;align=left;verticalAlign=middle;spacingLeft=4;spacingRight=4;overflow=hidden;points=[[0,0.5],[1,0.5]];portConstraint=eastwest;rotatable=0;whiteSpace=wrap;html=1;" vertex="1" parent="3V8YBEgaMH6hL4Iayk6c-17">
          <mxGeometry y="60" width="140" height="30" as="geometry" />
        </mxCell>
        <mxCell id="3V8YBEgaMH6hL4Iayk6c-20" value="&lt;div&gt;capacidad&lt;/div&gt;" style="text;strokeColor=none;fillColor=none;align=left;verticalAlign=middle;spacingLeft=4;spacingRight=4;overflow=hidden;points=[[0,0.5],[1,0.5]];portConstraint=eastwest;rotatable=0;whiteSpace=wrap;html=1;" vertex="1" parent="3V8YBEgaMH6hL4Iayk6c-17">
          <mxGeometry y="90" width="140" height="30" as="geometry" />
        </mxCell>
        <mxCell id="3V8YBEgaMH6hL4Iayk6c-21" style="edgeStyle=orthogonalEdgeStyle;rounded=0;orthogonalLoop=1;jettySize=auto;html=1;entryX=1;entryY=0.5;entryDx=0;entryDy=0;" edge="1" parent="1" source="3V8YBEgaMH6hL4Iayk6c-18" target="3V8YBEgaMH6hL4Iayk6c-16">
          <mxGeometry relative="1" as="geometry" />
        </mxCell>
        <mxCell id="3V8YBEgaMH6hL4Iayk6c-24" value="Camara" style="swimlane;fontStyle=0;childLayout=stackLayout;horizontal=1;startSize=30;horizontalStack=0;resizeParent=1;resizeParentMax=0;resizeLast=0;collapsible=1;marginBottom=0;whiteSpace=wrap;html=1;" vertex="1" parent="1">
          <mxGeometry x="20" y="180" width="140" height="90" as="geometry" />
        </mxCell>
        <mxCell id="3V8YBEgaMH6hL4Iayk6c-25" value="id_camara" style="text;strokeColor=#6c8ebf;fillColor=#dae8fc;align=left;verticalAlign=middle;spacingLeft=4;spacingRight=4;overflow=hidden;points=[[0,0.5],[1,0.5]];portConstraint=eastwest;rotatable=0;whiteSpace=wrap;html=1;" vertex="1" parent="3V8YBEgaMH6hL4Iayk6c-24">
          <mxGeometry y="30" width="140" height="30" as="geometry" />
        </mxCell>
        <mxCell id="3V8YBEgaMH6hL4Iayk6c-26" value="nombre" style="text;strokeColor=none;fillColor=none;align=left;verticalAlign=middle;spacingLeft=4;spacingRight=4;overflow=hidden;points=[[0,0.5],[1,0.5]];portConstraint=eastwest;rotatable=0;whiteSpace=wrap;html=1;" vertex="1" parent="3V8YBEgaMH6hL4Iayk6c-24">
          <mxGeometry y="60" width="140" height="30" as="geometry" />
        </mxCell>
        <mxCell id="3V8YBEgaMH6hL4Iayk6c-27" style="edgeStyle=orthogonalEdgeStyle;rounded=0;orthogonalLoop=1;jettySize=auto;html=1;" edge="1" parent="1" source="3V8YBEgaMH6hL4Iayk6c-25" target="3V8YBEgaMH6hL4Iayk6c-22">
          <mxGeometry relative="1" as="geometry" />
        </mxCell>
        <mxCell id="3V8YBEgaMH6hL4Iayk6c-28" style="edgeStyle=orthogonalEdgeStyle;rounded=0;orthogonalLoop=1;jettySize=auto;html=1;exitX=1;exitY=0.5;exitDx=0;exitDy=0;entryX=0;entryY=0.5;entryDx=0;entryDy=0;" edge="1" parent="1" source="3V8YBEgaMH6hL4Iayk6c-25" target="3V8YBEgaMH6hL4Iayk6c-23">
          <mxGeometry relative="1" as="geometry" />
        </mxCell>
        <mxCell id="3V8YBEgaMH6hL4Iayk6c-30" value="Clientes" style="swimlane;fontStyle=0;childLayout=stackLayout;horizontal=1;startSize=30;horizontalStack=0;resizeParent=1;resizeParentMax=0;resizeLast=0;collapsible=1;marginBottom=0;whiteSpace=wrap;html=1;" vertex="1" parent="1">
          <mxGeometry x="30" y="330" width="140" height="270" as="geometry" />
        </mxCell>
        <mxCell id="3V8YBEgaMH6hL4Iayk6c-31" value="id_cliente" style="text;strokeColor=#6c8ebf;fillColor=#dae8fc;align=left;verticalAlign=middle;spacingLeft=4;spacingRight=4;overflow=hidden;points=[[0,0.5],[1,0.5]];portConstraint=eastwest;rotatable=0;whiteSpace=wrap;html=1;" vertex="1" parent="3V8YBEgaMH6hL4Iayk6c-30">
          <mxGeometry y="30" width="140" height="30" as="geometry" />
        </mxCell>
        <mxCell id="3V8YBEgaMH6hL4Iayk6c-32" value="nombre" style="text;strokeColor=none;fillColor=none;align=left;verticalAlign=middle;spacingLeft=4;spacingRight=4;overflow=hidden;points=[[0,0.5],[1,0.5]];portConstraint=eastwest;rotatable=0;whiteSpace=wrap;html=1;" vertex="1" parent="3V8YBEgaMH6hL4Iayk6c-30">
          <mxGeometry y="60" width="140" height="30" as="geometry" />
        </mxCell>
        <mxCell id="3V8YBEgaMH6hL4Iayk6c-33" value="segundo_nombre" style="text;strokeColor=none;fillColor=none;align=left;verticalAlign=middle;spacingLeft=4;spacingRight=4;overflow=hidden;points=[[0,0.5],[1,0.5]];portConstraint=eastwest;rotatable=0;whiteSpace=wrap;html=1;" vertex="1" parent="3V8YBEgaMH6hL4Iayk6c-30">
          <mxGeometry y="90" width="140" height="30" as="geometry" />
        </mxCell>
        <mxCell id="3V8YBEgaMH6hL4Iayk6c-34" value="apellido" style="text;strokeColor=none;fillColor=none;align=left;verticalAlign=middle;spacingLeft=4;spacingRight=4;overflow=hidden;points=[[0,0.5],[1,0.5]];portConstraint=eastwest;rotatable=0;whiteSpace=wrap;html=1;" vertex="1" parent="3V8YBEgaMH6hL4Iayk6c-30">
          <mxGeometry y="120" width="140" height="30" as="geometry" />
        </mxCell>
        <mxCell id="3V8YBEgaMH6hL4Iayk6c-35" value="segundo_apellido" style="text;strokeColor=none;fillColor=none;align=left;verticalAlign=middle;spacingLeft=4;spacingRight=4;overflow=hidden;points=[[0,0.5],[1,0.5]];portConstraint=eastwest;rotatable=0;whiteSpace=wrap;html=1;" vertex="1" parent="3V8YBEgaMH6hL4Iayk6c-30">
          <mxGeometry y="150" width="140" height="30" as="geometry" />
        </mxCell>
        <mxCell id="3V8YBEgaMH6hL4Iayk6c-37" value="mail" style="text;strokeColor=none;fillColor=none;align=left;verticalAlign=middle;spacingLeft=4;spacingRight=4;overflow=hidden;points=[[0,0.5],[1,0.5]];portConstraint=eastwest;rotatable=0;whiteSpace=wrap;html=1;" vertex="1" parent="3V8YBEgaMH6hL4Iayk6c-30">
          <mxGeometry y="180" width="140" height="30" as="geometry" />
        </mxCell>
        <mxCell id="3V8YBEgaMH6hL4Iayk6c-38" value="direccion" style="text;strokeColor=none;fillColor=none;align=left;verticalAlign=middle;spacingLeft=4;spacingRight=4;overflow=hidden;points=[[0,0.5],[1,0.5]];portConstraint=eastwest;rotatable=0;whiteSpace=wrap;html=1;" vertex="1" parent="3V8YBEgaMH6hL4Iayk6c-30">
          <mxGeometry y="210" width="140" height="30" as="geometry" />
        </mxCell>
        <mxCell id="3V8YBEgaMH6hL4Iayk6c-39" value="dni" style="text;strokeColor=none;fillColor=none;align=left;verticalAlign=middle;spacingLeft=4;spacingRight=4;overflow=hidden;points=[[0,0.5],[1,0.5]];portConstraint=eastwest;rotatable=0;whiteSpace=wrap;html=1;" vertex="1" parent="3V8YBEgaMH6hL4Iayk6c-30">
          <mxGeometry y="240" width="140" height="30" as="geometry" />
        </mxCell>
        <mxCell id="3V8YBEgaMH6hL4Iayk6c-40" value="Facturas" style="swimlane;fontStyle=0;childLayout=stackLayout;horizontal=1;startSize=30;horizontalStack=0;resizeParent=1;resizeParentMax=0;resizeLast=0;collapsible=1;marginBottom=0;whiteSpace=wrap;html=1;" vertex="1" parent="1">
          <mxGeometry x="270" y="390" width="140" height="180" as="geometry" />
        </mxCell>
        <mxCell id="3V8YBEgaMH6hL4Iayk6c-41" value="id_factura" style="text;strokeColor=#6c8ebf;fillColor=#dae8fc;align=left;verticalAlign=middle;spacingLeft=4;spacingRight=4;overflow=hidden;points=[[0,0.5],[1,0.5]];portConstraint=eastwest;rotatable=0;whiteSpace=wrap;html=1;" vertex="1" parent="3V8YBEgaMH6hL4Iayk6c-40">
          <mxGeometry y="30" width="140" height="30" as="geometry" />
        </mxCell>
        <mxCell id="3V8YBEgaMH6hL4Iayk6c-42" value="fecha" style="text;strokeColor=none;fillColor=none;align=left;verticalAlign=middle;spacingLeft=4;spacingRight=4;overflow=hidden;points=[[0,0.5],[1,0.5]];portConstraint=eastwest;rotatable=0;whiteSpace=wrap;html=1;" vertex="1" parent="3V8YBEgaMH6hL4Iayk6c-40">
          <mxGeometry y="60" width="140" height="30" as="geometry" />
        </mxCell>
        <mxCell id="3V8YBEgaMH6hL4Iayk6c-43" value="precio_total" style="text;strokeColor=none;fillColor=none;align=left;verticalAlign=middle;spacingLeft=4;spacingRight=4;overflow=hidden;points=[[0,0.5],[1,0.5]];portConstraint=eastwest;rotatable=0;whiteSpace=wrap;html=1;" vertex="1" parent="3V8YBEgaMH6hL4Iayk6c-40">
          <mxGeometry y="90" width="140" height="30" as="geometry" />
        </mxCell>
        <mxCell id="3V8YBEgaMH6hL4Iayk6c-44" value="id_cliente" style="text;strokeColor=#b85450;fillColor=#f8cecc;align=left;verticalAlign=middle;spacingLeft=4;spacingRight=4;overflow=hidden;points=[[0,0.5],[1,0.5]];portConstraint=eastwest;rotatable=0;whiteSpace=wrap;html=1;" vertex="1" parent="3V8YBEgaMH6hL4Iayk6c-40">
          <mxGeometry y="120" width="140" height="30" as="geometry" />
        </mxCell>
        <mxCell id="3V8YBEgaMH6hL4Iayk6c-46" value="id_cliente" style="text;strokeColor=#b85450;fillColor=#f8cecc;align=left;verticalAlign=middle;spacingLeft=4;spacingRight=4;overflow=hidden;points=[[0,0.5],[1,0.5]];portConstraint=eastwest;rotatable=0;whiteSpace=wrap;html=1;" vertex="1" parent="3V8YBEgaMH6hL4Iayk6c-40">
          <mxGeometry y="150" width="140" height="30" as="geometry" />
        </mxCell>
        <mxCell id="3V8YBEgaMH6hL4Iayk6c-45" style="edgeStyle=orthogonalEdgeStyle;rounded=0;orthogonalLoop=1;jettySize=auto;html=1;exitX=1;exitY=0.5;exitDx=0;exitDy=0;entryX=0;entryY=0.5;entryDx=0;entryDy=0;" edge="1" parent="1" source="3V8YBEgaMH6hL4Iayk6c-31" target="3V8YBEgaMH6hL4Iayk6c-44">
          <mxGeometry relative="1" as="geometry" />
        </mxCell>
        <mxCell id="3V8YBEgaMH6hL4Iayk6c-47" value="Cuerpo_Factura" style="swimlane;fontStyle=0;childLayout=stackLayout;horizontal=1;startSize=30;horizontalStack=0;resizeParent=1;resizeParentMax=0;resizeLast=0;collapsible=1;marginBottom=0;whiteSpace=wrap;html=1;" vertex="1" parent="1">
          <mxGeometry x="620" y="250" width="140" height="180" as="geometry" />
        </mxCell>
        <mxCell id="3V8YBEgaMH6hL4Iayk6c-48" value="&lt;div&gt;id_cuerpo&lt;/div&gt;" style="text;strokeColor=#6c8ebf;fillColor=#dae8fc;align=left;verticalAlign=middle;spacingLeft=4;spacingRight=4;overflow=hidden;points=[[0,0.5],[1,0.5]];portConstraint=eastwest;rotatable=0;whiteSpace=wrap;html=1;" vertex="1" parent="3V8YBEgaMH6hL4Iayk6c-47">
          <mxGeometry y="30" width="140" height="30" as="geometry" />
        </mxCell>
        <mxCell id="3V8YBEgaMH6hL4Iayk6c-49" value="id_facutra" style="text;strokeColor=#b85450;fillColor=#f8cecc;align=left;verticalAlign=middle;spacingLeft=4;spacingRight=4;overflow=hidden;points=[[0,0.5],[1,0.5]];portConstraint=eastwest;rotatable=0;whiteSpace=wrap;html=1;" vertex="1" parent="3V8YBEgaMH6hL4Iayk6c-47">
          <mxGeometry y="60" width="140" height="30" as="geometry" />
        </mxCell>
        <mxCell id="3V8YBEgaMH6hL4Iayk6c-50" value="Precio_unitario" style="text;strokeColor=none;fillColor=none;align=left;verticalAlign=middle;spacingLeft=4;spacingRight=4;overflow=hidden;points=[[0,0.5],[1,0.5]];portConstraint=eastwest;rotatable=0;whiteSpace=wrap;html=1;" vertex="1" parent="3V8YBEgaMH6hL4Iayk6c-47">
          <mxGeometry y="90" width="140" height="30" as="geometry" />
        </mxCell>
        <mxCell id="3V8YBEgaMH6hL4Iayk6c-52" value="cantidad" style="text;strokeColor=none;fillColor=none;align=left;verticalAlign=middle;spacingLeft=4;spacingRight=4;overflow=hidden;points=[[0,0.5],[1,0.5]];portConstraint=eastwest;rotatable=0;whiteSpace=wrap;html=1;" vertex="1" parent="3V8YBEgaMH6hL4Iayk6c-47">
          <mxGeometry y="120" width="140" height="30" as="geometry" />
        </mxCell>
        <mxCell id="3V8YBEgaMH6hL4Iayk6c-53" value="&lt;div&gt;id_equipo&lt;/div&gt;" style="text;strokeColor=#b85450;fillColor=#f8cecc;align=left;verticalAlign=middle;spacingLeft=4;spacingRight=4;overflow=hidden;points=[[0,0.5],[1,0.5]];portConstraint=eastwest;rotatable=0;whiteSpace=wrap;html=1;" vertex="1" parent="3V8YBEgaMH6hL4Iayk6c-47">
          <mxGeometry y="150" width="140" height="30" as="geometry" />
        </mxCell>
        <mxCell id="3V8YBEgaMH6hL4Iayk6c-51" style="edgeStyle=orthogonalEdgeStyle;rounded=0;orthogonalLoop=1;jettySize=auto;html=1;entryX=0;entryY=0.5;entryDx=0;entryDy=0;" edge="1" parent="1" source="3V8YBEgaMH6hL4Iayk6c-41" target="3V8YBEgaMH6hL4Iayk6c-49">
          <mxGeometry relative="1" as="geometry" />
        </mxCell>
        <mxCell id="3V8YBEgaMH6hL4Iayk6c-54" style="edgeStyle=orthogonalEdgeStyle;rounded=0;orthogonalLoop=1;jettySize=auto;html=1;entryX=0;entryY=0.733;entryDx=0;entryDy=0;entryPerimeter=0;" edge="1" parent="1" source="3V8YBEgaMH6hL4Iayk6c-12" target="3V8YBEgaMH6hL4Iayk6c-53">
          <mxGeometry relative="1" as="geometry" />
        </mxCell>
      </root>
    </mxGraphModel>
  </diagram>
</mxfile>
